<svg width="47" height="47" viewBox="0 0 47 47" fill="none" xmlns="http://www.w3.org/2000/svg">
<circle cx="23.5" cy="23.5" r="23.5" fill="#008EFF"/>
<path d="M17.5471 17.367L17.5467 27.4168C17.5467 29.4934 19.1628 31.1925 21.2058 31.3251L21.4633 31.3334L28.3792 31.3345C28.0563 32.2467 27.1861 32.9001 26.1633 32.9001H20.68C18.0843 32.9001 15.98 30.7958 15.98 28.2001V19.5834C15.98 18.5601 16.6342 17.6895 17.5471 17.367ZM29.2967 14.1001C30.5945 14.1001 31.6467 15.1522 31.6467 16.4501V27.4168C31.6467 28.7146 30.5945 29.7668 29.2967 29.7668H21.4633C20.1655 29.7668 19.1133 28.7146 19.1133 27.4168V16.4501C19.1133 15.1522 20.1655 14.1001 21.4633 14.1001H29.2967ZM29.2967 15.6668H21.4633C21.0307 15.6668 20.68 16.0175 20.68 16.4501V27.4168C20.68 27.8494 21.0307 28.2001 21.4633 28.2001H29.2967C29.7293 28.2001 30.08 27.8494 30.08 27.4168V16.4501C30.08 16.0175 29.7293 15.6668 29.2967 15.6668Z" fill="white"/>
</svg>
