<svg width="50" height="50" viewBox="0 0 50 50" fill="none" xmlns="http://www.w3.org/2000/svg">
<circle cx="25" cy="25" r="25" fill="#FABB18"/>
<path d="M35.2143 24.2143C32.7145 24.2114 30.318 23.2172 28.5504 21.4496C26.7828 19.682 25.7886 17.2855 25.7857 14.7857C25.7857 14.5773 25.7029 14.3775 25.5556 14.2301C25.4082 14.0828 25.2084 14 25 14C24.7916 14 24.5918 14.0828 24.4444 14.2301C24.2971 14.3775 24.2143 14.5773 24.2143 14.7857C24.2114 17.2855 23.2172 19.682 21.4496 21.4496C19.682 23.2172 17.2855 24.2114 14.7857 24.2143C14.5773 24.2143 14.3775 24.2971 14.2301 24.4444C14.0828 24.5918 14 24.7916 14 25C14 25.2084 14.0828 25.4082 14.2301 25.5556C14.3775 25.7029 14.5773 25.7857 14.7857 25.7857C17.2855 25.7886 19.682 26.7828 21.4496 28.5504C23.2172 30.318 24.2114 32.7145 24.2143 35.2143C24.2143 35.4227 24.2971 35.6225 24.4444 35.7699C24.5918 35.9172 24.7916 36 25 36C25.2084 36 25.4082 35.9172 25.5556 35.7699C25.7029 35.6225 25.7857 35.4227 25.7857 35.2143C25.7886 32.7145 26.7828 30.318 28.5504 28.5504C30.318 26.7828 32.7145 25.7886 35.2143 25.7857C35.4227 25.7857 35.6225 25.7029 35.7699 25.5556C35.9172 25.4082 36 25.2084 36 25C36 24.7916 35.9172 24.5918 35.7699 24.4444C35.6225 24.2971 35.4227 24.2143 35.2143 24.2143ZM25 31.1551C24.4444 29.7657 23.6123 28.5038 22.5543 27.4457C21.4962 26.3877 20.2343 25.5556 18.8449 25C20.2343 24.4444 21.4962 23.6123 22.5543 22.5543C23.6123 21.4962 24.4444 20.2343 25 18.8449C25.5556 20.2343 26.3877 21.4962 27.4457 22.5543C28.5038 23.6123 29.7657 24.4444 31.1551 25C29.7657 25.5556 28.5038 26.3877 27.4457 27.4457C26.3877 28.5038 25.5556 29.7657 25 31.1551Z" fill="white"/>
</svg>
